<?xml version="1.0" encoding="utf-8"?>
<!-- Generator: Adobe Illustrator 28.3.0, SVG Export Plug-In . SVG Version: 6.00 Build 0)  -->
<svg version="1.1" id="Layer_1" xmlns="http://www.w3.org/2000/svg" xmlns:xlink="http://www.w3.org/1999/xlink" x="0px" y="0px"
	 viewBox="0 0 1920 1080" style="enable-background:new 0 0 1920 1080;" xml:space="preserve">
<style type="text/css">
	.st0{opacity:0.41;}
	.st1{clip-path:url(#SVGID_00000145054775632825248700000012233242688044083877_);}
</style>
<g id="Group_5" transform="translate(0 239.506) rotate(-21)" class="st0">
	<g id="Group_4">
		<g>
			<defs>
				
					<rect id="SVGID_1_" x="433.7" y="584.1" transform="matrix(0.9336 -0.3584 0.3584 0.9336 -195.0012 350.4578)" width="828.6" height="234.4"/>
			</defs>
			<clipPath id="SVGID_00000073705781880150431630000009305869814448454027_">
				<use xlink:href="#SVGID_1_"  style="overflow:visible;"/>
			</clipPath>
			<g id="Group_3" style="clip-path:url(#SVGID_00000073705781880150431630000009305869814448454027_);">
				<path id="Path_1" d="M453.9,790.1c-1.8,2-4.4,2.6-5.9,1.3s-1.1-4,0.7-6s4.4-2.6,5.9-1.3S455.7,788.1,453.9,790.1"/>
				<path id="Path_2" d="M463.3,791.8c-2.3,1.8-5.1,2.1-6.3,0.6c-1.2-1.5-0.4-4.2,1.9-6.1c2.3-1.9,5.1-2.1,6.3-0.6
					C466.4,787.2,465.5,789.9,463.3,791.8"/>
				<path id="Path_3" d="M461.2,802.6c-2.6,0.6-4.4,2.6-4,4.5s2.9,2.9,5.6,2.3c2.6-0.6,4.4-2.6,4-4.5S463.8,802,461.2,802.6"/>
				<path id="Path_4" d="M464.4,793.6c-2.7,1.1-4.4,3.4-3.6,5.2c0.7,1.8,3.5,2.4,6.2,1.4c2.7-1.1,4.4-3.4,3.6-5.2
					C469.9,793.2,467.1,792.6,464.4,793.6"/>
				<path id="Path_5" d="M455.7,804.1c0.7-2,3.4-2.8,2.7-6.1c-0.3-1.3-0.9-2.4-1.9-3.2c-2.5-2.2-4.5-0.2-6.7-0.6
					c-2.5-0.4-5.3-2-8,0.1c-0.9,0.6-1.5,1.6-1.6,2.6c-0.1,1.5,0.6,3.1,1.8,4c1,0.8,2,1.8,2.7,2.9c0.6,1.2,1,2.5,1.2,3.8
					c0.3,1.5,1.2,2.8,2.6,3.5c1,0.4,2.1,0.4,3.1-0.1C454.9,809.7,454.9,806.4,455.7,804.1"/>
				<path id="Path_6" d="M551.7,726.1c-2.1,1.7-4.8,2-6,0.5s-0.6-4.1,1.5-5.8c2.1-1.7,4.8-2,6-0.5S553.8,724.4,551.7,726.1"/>
				<path id="Path_7" d="M560.8,729c-2.5,1.5-5.3,1.4-6.3-0.2c-1-1.7,0.2-4.2,2.7-5.8c2.5-1.5,5.3-1.4,6.3,0.2
					C564.5,724.9,563.3,727.4,560.8,729"/>
				<path id="Path_8" d="M557.3,739.4c-2.7,0.2-4.7,2-4.6,3.9s2.5,3.3,5.2,3c2.7-0.2,4.7-2,4.6-3.9
					C562.3,740.5,560,739.2,557.3,739.4"/>
				<path id="Path_9" d="M561.6,731c-2.8,0.7-4.8,2.8-4.3,4.7c0.5,1.9,3.1,2.9,6,2.2c2.8-0.7,4.8-2.8,4.3-4.7
					C567.2,731.3,564.5,730.3,561.6,731"/>
				<path id="Path_10" d="M551.7,740.2c1-1.9,3.8-2.4,3.5-5.7c-0.1-1.3-0.6-2.5-1.4-3.5c-2.2-2.5-4.5-0.9-6.5-1.5
					c-2.4-0.7-5-2.7-8-0.9c-0.9,0.5-1.6,1.4-1.9,2.4c-0.3,1.5,0.1,3.1,1.2,4.2c2,1.8,3.1,4.5,3,7.2c0,1.6,0.9,3,2.1,3.8
					c0.9,0.5,2,0.6,3.1,0.3C550.1,745.6,550.5,742.4,551.7,740.2"/>
				<path id="Path_11" d="M663.8,682.8c-2.4,1.2-5.1,0.8-5.9-0.9c-0.9-1.7,0.4-4.1,2.8-5.3c2.4-1.2,5.1-0.8,5.9,0.9
					S666.2,681.6,663.8,682.8"/>
				<path id="Path_12" d="M671.9,687.7c-2.8,0.9-5.5,0.1-6.1-1.7s1.2-4.1,3.9-5c2.8-0.9,5.5-0.1,6.1,1.7
					C676.4,684.5,674.7,686.8,671.9,687.7"/>
				<path id="Path_13" d="M666.1,697c-2.7-0.4-5.1,0.8-5.4,2.7s1.7,3.8,4.4,4.1c2.7,0.4,5.1-0.8,5.4-2.7
					C670.7,699.3,668.7,697.4,666.1,697"/>
				<path id="Path_14" d="M672.2,689.8c-2.9,0-5.3,1.6-5.3,3.5s2.4,3.5,5.3,3.5c2.9,0,5.3-1.6,5.3-3.5
					C677.5,691.4,675.2,689.8,672.2,689.8"/>
				<path id="Path_15" d="M660.4,696.5c1.4-1.6,4.2-1.4,4.8-4.7c0.2-1.3,0-2.6-0.6-3.7c-1.6-2.9-4.2-1.9-6-3
					c-2.2-1.3-4.2-3.8-7.5-2.8c-1,0.3-1.9,0.9-2.4,1.9c-0.7,1.4-0.6,3,0.2,4.4c1.5,2.3,2,5.1,1.2,7.7c-0.3,1.5,0.1,3.1,1.2,4.2
					c0.8,0.7,1.8,1.1,2.9,1C657.7,701.4,658.8,698.3,660.4,696.5"/>
				<path id="Path_16" d="M787.6,679.8c-2.7,0.5-5.1-0.6-5.5-2.5c-0.4-1.9,1.5-3.8,4.2-4.3s5.1,0.6,5.5,2.5
					C792.1,677.4,790.2,679.3,787.6,679.8"/>
				<path id="Path_17" d="M794,686.8c-2.9,0.1-5.3-1.4-5.4-3.3c-0.1-1.9,2.3-3.6,5.2-3.7s5.3,1.4,5.4,3.3
					C799.2,685,796.9,686.7,794,686.8"/>
				<path id="Path_18" d="M785.8,694.1c-2.5-1.1-5.1-0.6-5.9,1.1s0.5,4.1,3,5.2c2.5,1.1,5.1,0.6,5.9-1.1S788.2,695.3,785.8,694.1"/>
				<path id="Path_19" d="M793.7,689c-2.8-0.8-5.5,0-6.1,1.9s1.3,4,4.1,4.8c2.8,0.8,5.5,0,6.1-1.9
					C798.4,691.9,796.5,689.8,793.7,689"/>
				<path id="Path_20" d="M780.5,692c1.8-1.2,4.4-0.2,5.9-3.2c0.6-1.2,0.7-2.5,0.5-3.7c-0.7-3.3-3.5-3-4.9-4.5
					c-1.7-1.8-3-4.8-6.4-4.8c-1.1,0-2.1,0.4-2.9,1.1c-1,1.2-1.4,2.8-1,4.3c0.8,2.6,0.5,5.4-1,7.7c-0.7,1.4-0.7,3,0,4.4
					c0.6,0.9,1.5,1.6,2.5,1.8C776.5,695.9,778.4,693.4,780.5,692"/>
				<path id="Path_21" d="M921.2,701.2c-2.7,0.3-5-1.1-5.2-3c-0.2-1.9,1.8-3.7,4.5-3.9s5,1.1,5.2,3
					C925.9,699.2,923.9,700.9,921.2,701.2"/>
				<path id="Path_22" d="M927,708.7c-2.9-0.2-5.2-1.9-5.1-3.8s2.5-3.4,5.5-3.2c2.9,0.2,5.2,1.9,5.1,3.8S929.9,708.8,927,708.7"/>
				<path id="Path_23" d="M918.2,715.3c-2.4-1.3-5-1.1-6,0.6s0.2,4.1,2.6,5.4c2.4,1.3,5,1.1,6-0.6
					C921.7,719.1,920.5,716.6,918.2,715.3"/>
				<path id="Path_24" d="M926.5,710.8c-2.7-1-5.5-0.4-6.2,1.4c-0.7,1.8,1,4.1,3.7,5.2s5.5,0.4,6.2-1.4
					C930.9,714.2,929.3,711.9,926.5,710.8"/>
				<path id="Path_25" d="M913.1,712.8c1.9-1,4.4,0.2,6.1-2.7c0.7-1.1,0.9-2.4,0.8-3.7c-0.4-3.3-3.2-3.2-4.5-4.9c-1.5-2-2.5-5-6-5.3
					c-1.1-0.1-2.1,0.2-2.9,0.9c-1.1,1.1-1.6,2.6-1.4,4.2c0.6,2.6,0,5.4-1.6,7.6c-0.8,1.3-1,2.9-0.4,4.4c0.5,1,1.3,1.7,2.3,2
					C908.8,716.3,910.9,713.9,913.1,712.8"/>
				<path id="Path_26" d="M1057.2,699.7c-2.5,0.9-5.1,0.3-5.8-1.5c-0.7-1.8,0.8-4,3.4-5c2.5-0.9,5.1-0.3,5.8,1.5
					C1061.3,696.5,1059.8,698.8,1057.2,699.7"/>
				<path id="Path_27" d="M1064.8,705.4c-2.9,0.6-5.5-0.4-5.9-2.3s1.6-3.9,4.4-4.5c2.9-0.6,5.5,0.4,5.9,2.3
					C1069.7,702.8,1067.7,704.8,1064.8,705.4"/>
				<path id="Path_28" d="M1058,714.1c-2.6-0.7-5.1,0.3-5.6,2.1s1.3,3.9,3.9,4.6c2.6,0.7,5.1-0.3,5.6-2.1
					C1062.4,716.8,1060.6,714.8,1058,714.1"/>
				<path id="Path_29" d="M1064.9,707.6c-2.9-0.3-5.4,1-5.6,3c-0.2,1.9,2,3.7,4.9,4c2.9,0.3,5.4-1,5.6-3
					C1070,709.7,1067.8,707.9,1064.9,707.6"/>
				<path id="Path_30" d="M1052.5,712.9c1.6-1.5,4.3-1,5.2-4.2c0.3-1.2,0.3-2.6-0.2-3.8c-1.2-3.1-3.9-2.3-5.6-3.6
					c-2-1.5-3.8-4.2-7.2-3.6c-1.1,0.1-2,0.7-2.6,1.6c-0.8,1.3-0.9,3-0.3,4.4c1.3,2.4,1.4,5.2,0.4,7.8c-0.5,1.5-0.2,3.1,0.7,4.3
					c0.7,0.8,1.7,1.3,2.8,1.3C1049.2,717.5,1050.6,714.6,1052.5,712.9"/>
				<path id="Path_31" d="M1189.8,658.7c-2.3,1.4-5,1.1-6-0.5s0.2-4.1,2.5-5.5s5-1.1,6,0.5C1193.3,654.9,1192.1,657.3,1189.8,658.7"
					/>
				<path id="Path_32" d="M1198.2,663c-2.7,1.1-5.5,0.5-6.2-1.3c-0.7-1.8,0.9-4.1,3.6-5.2c2.7-1.1,5.5-0.5,6.2,1.3
					C1202.6,659.6,1200.9,662,1198.2,663"/>
				<path id="Path_33" d="M1193,672.7c-2.7-0.2-5,1.1-5.2,3s1.9,3.6,4.6,3.9c2.7,0.2,5-1.1,5.2-3S1195.7,673,1193,672.7"/>
				<path id="Path_34" d="M1198.7,665.2c-2.9,0.2-5.2,1.9-5,3.9c0.1,1.9,2.6,3.4,5.5,3.2s5.2-1.9,5-3.9
					C1204.1,666.4,1201.6,665,1198.7,665.2"/>
				<path id="Path_35" d="M1187.3,672.5c1.3-1.7,4.1-1.7,4.5-5c0.1-1.3-0.2-2.6-0.8-3.7c-1.7-2.9-4.3-1.6-6.2-2.6
					c-2.2-1.1-4.4-3.5-7.7-2.3c-1,0.3-1.9,1.1-2.3,2c-0.6,1.4-0.4,3.1,0.5,4.4c1.6,2.2,2.3,4.9,1.7,7.6c-0.2,1.5,0.3,3.1,1.5,4.1
					c0.8,0.7,1.9,1,3,0.8C1184.8,677.6,1185.8,674.5,1187.3,672.5"/>
				<path id="Path_36" d="M482.6,728.4c-1.6,2.2-4.1,3.1-5.7,2c-1.6-1.1-1.6-3.8,0-6c1.6-2.2,4.1-3.1,5.7-2
					C484.1,723.5,484.1,726.2,482.6,728.4"/>
				<path id="Path_37" d="M492.1,728.9c-2,2.1-4.8,2.7-6.2,1.4c-1.4-1.3-0.9-4.1,1.1-6.2c2-2.1,4.8-2.7,6.2-1.4
					C494.6,724,494.1,726.8,492.1,728.9"/>
				<path id="Path_38" d="M491.3,739.9c-2.5,0.9-4.1,3.1-3.4,4.9s3.2,2.5,5.8,1.6c2.5-0.9,4.1-3.1,3.4-4.9
					C496.5,739.7,493.9,739,491.3,739.9"/>
				<path id="Path_39" d="M493.4,730.6c-2.6,1.4-3.9,3.9-3,5.6s3.8,2,6.3,0.6c2.6-1.4,3.9-3.9,3-5.6S496,729.2,493.4,730.6"/>
				<path id="Path_40" d="M486.1,742c0.5-2.1,3-3.2,2-6.4c-0.4-1.2-1.2-2.3-2.3-3c-2.8-1.9-4.5,0.3-6.7,0.2
					c-2.5-0.1-5.5-1.3-7.9,1.1c-0.8,0.7-1.2,1.7-1.3,2.8c0.1,1.5,0.9,3,2.2,3.8c2.4,1.3,4.1,3.5,4.7,6.2c0.4,1.5,1.6,2.7,3.1,3.2
					c1,0.3,2.1,0.1,3-0.5C486,747.7,485.6,744.5,486.1,742"/>
				<path id="Path_41" d="M591.2,671.1c-2,1.9-4.6,2.3-5.9,0.9c-1.3-1.4-0.8-4,1.1-5.9c2-1.9,4.6-2.3,5.9-0.9
					C593.6,666.6,593.1,669.2,591.2,671.1"/>
				<path id="Path_42" d="M600.4,673.4c-2.4,1.7-5.2,1.8-6.3,0.2c-1.1-1.6-0.1-4.2,2.3-5.9c2.4-1.7,5.2-1.8,6.3-0.2
					C603.8,669,602.8,671.7,600.4,673.4"/>
				<path id="Path_43" d="M597.6,684c-2.7,0.4-4.6,2.3-4.3,4.2c0.3,1.9,2.7,3.1,5.4,2.7c2.7-0.4,4.6-2.3,4.3-4.2
					C602.7,684.8,600.2,683.6,597.6,684"/>
				<path id="Path_44" d="M601.4,675.3c-2.8,0.9-4.6,3.1-4,4.9s3.3,2.7,6.1,1.8c2.8-0.9,4.6-3.1,4-4.9
					C606.9,675.3,604.2,674.5,601.4,675.3"/>
				<path id="Path_45" d="M592,685.2c0.9-2,3.6-2.6,3.2-5.9c-0.2-1.3-0.8-2.5-1.7-3.4c-2.4-2.4-4.5-0.6-6.6-1.1
					c-2.4-0.6-5.1-2.4-8-0.4c-0.9,0.6-1.6,1.5-1.8,2.5c-0.2,1.5,0.3,3.1,1.5,4.1c2.1,1.7,3.4,4.3,3.4,7c0.1,1.5,1,2.9,2.4,3.7
					c1,0.5,2.1,0.5,3.1,0.1C590.8,690.7,591,687.5,592,685.2"/>
				<path id="Path_46" d="M726.4,643.1c-2.4,1.2-5.1,0.7-5.9-1c-0.8-1.7,0.5-4.1,2.9-5.2c2.4-1.2,5.1-0.7,5.9,1
					C730.1,639.6,728.8,641.9,726.4,643.1"/>
				<path id="Path_47" d="M734.4,648.1c-2.8,0.8-5.5,0-6.1-1.8c-0.6-1.9,1.2-4.1,4-4.9s5.5,0,6.1,1.8
					C739,645.1,737.2,647.3,734.4,648.1"/>
				<path id="Path_48" d="M728.4,657.4c-2.7-0.5-5.1,0.7-5.4,2.6s1.6,3.8,4.3,4.2c2.7,0.5,5.1-0.7,5.4-2.6S731,657.8,728.4,657.4"/>
				<path id="Path_49" d="M734.7,650.3c-2.9,0-5.3,1.5-5.3,3.4c0,1.9,2.3,3.6,5.2,3.6c2.9,0,5.3-1.5,5.3-3.4
					C740,652,737.6,650.4,734.7,650.3"/>
				<path id="Path_50" d="M722.7,656.7c1.4-1.6,4.2-1.3,4.9-4.6c0.2-1.3,0.1-2.6-0.5-3.7c-1.5-3-4.1-2-5.9-3.1
					c-2.1-1.3-4.1-3.9-7.5-2.9c-1,0.2-1.9,0.9-2.5,1.8c-0.7,1.4-0.6,3,0.1,4.4c1.5,2.3,1.9,5.1,1.1,7.7c-0.3,1.5,0.1,3.1,1.1,4.3
					c0.8,0.7,1.8,1.1,2.9,1.1C719.9,661.5,721.1,658.6,722.7,656.7"/>
				<path id="Path_51" d="M864.1,657.1c-2.6,0.6-5.1-0.4-5.6-2.2c-0.4-1.9,1.3-3.9,4-4.5c2.6-0.6,5.1,0.4,5.6,2.2
					S866.8,656.5,864.1,657.1"/>
				<path id="Path_52" d="M870.9,663.7c-2.9,0.2-5.4-1.1-5.6-3.1s2.1-3.7,5-3.9s5.4,1.1,5.6,3.1
					C876.1,661.7,873.9,663.5,870.9,663.7"/>
				<path id="Path_53" d="M863.1,671.5c-2.5-1-5.1-0.4-5.8,1.4c-0.7,1.8,0.8,4,3.3,5s5.1,0.4,5.8-1.4
					C867.1,674.8,865.6,672.5,863.1,671.5"/>
				<path id="Path_54" d="M870.8,665.9c-2.8-0.7-5.5,0.3-5.9,2.2c-0.4,1.9,1.5,4,4.4,4.6s5.5-0.3,5.9-2.2S873.6,666.6,870.8,665.9"
					/>
				<path id="Path_55" d="M857.8,669.7c1.7-1.3,4.4-0.4,5.7-3.5c0.5-1.2,0.6-2.5,0.3-3.8c-0.8-3.2-3.6-2.8-5.2-4.3
					c-1.8-1.7-3.2-4.6-6.7-4.4c-1.1,0-2.1,0.5-2.8,1.3c-1,1.2-1.3,2.8-0.8,4.3c1,2.5,0.7,5.4-0.6,7.8c-0.7,1.4-0.6,3,0.2,4.4
					c0.6,0.9,1.5,1.5,2.6,1.6C853.9,673.8,855.7,671.1,857.8,669.7"/>
				<path id="Path_56" d="M989.6,671.3c-2.5,1-5.1,0.4-5.9-1.4c-0.7-1.8,0.7-4,3.2-5.1c2.5-1,5.1-0.4,5.9,1.4
					C993.6,668,992.1,670.3,989.6,671.3"/>
				<path id="Path_57" d="M997.3,676.8c-2.8,0.7-5.5-0.3-6-2.2s1.5-4,4.3-4.7c2.8-0.7,5.5,0.3,6,2.2
					C1002.1,674,1000.2,676.1,997.3,676.8"/>
				<path id="Path_58" d="M990.8,685.7c-2.6-0.6-5.1,0.4-5.6,2.3c-0.4,1.9,1.4,3.9,4,4.5c2.6,0.6,5.1-0.4,5.6-2.3
					C995.2,688.3,993.4,686.3,990.8,685.7"/>
				<path id="Path_59" d="M997.5,679c-2.9-0.2-5.4,1.2-5.5,3.1s2.1,3.7,5,3.9c2.9,0.2,5.4-1.2,5.5-3.1
					C1002.7,681,1000.4,679.2,997.5,679"/>
				<path id="Path_60" d="M985.2,684.7c1.5-1.5,4.3-1.1,5.1-4.3c0.3-1.2,0.2-2.6-0.3-3.7c-1.3-3.1-4-2.2-5.7-3.4
					c-2-1.4-3.9-4.1-7.3-3.4c-1.1,0.2-2,0.8-2.6,1.7c-0.8,1.4-0.8,3-0.2,4.4c1.3,2.4,1.6,5.2,0.6,7.7c-0.4,1.5-0.1,3.1,0.9,4.3
					c0.7,0.8,1.7,1.2,2.8,1.2C982,689.3,983.4,686.4,985.2,684.7"/>
				<path id="Path_61" d="M1110.7,652.8c-1.9,1.9-4.6,2.4-5.9,1c-1.3-1.4-0.9-4,1-5.9c1.9-1.9,4.6-2.4,5.9-1
					S1112.6,650.9,1110.7,652.8"/>
				<path id="Path_62" d="M1119.9,655c-2.4,1.7-5.2,1.8-6.3,0.3s-0.2-4.2,2.2-6c2.4-1.7,5.2-1.8,6.3-0.3
					C1123.3,650.6,1122.3,653.2,1119.9,655"/>
				<path id="Path_63" d="M1117.3,665.7c-2.7,0.5-4.6,2.4-4.3,4.2s2.7,3.1,5.4,2.6s4.6-2.4,4.3-4.2
					C1122.4,666.4,1120,665.2,1117.3,665.7"/>
				<path id="Path_64" d="M1120.9,656.9c-2.8,0.9-4.5,3.2-3.9,5c0.6,1.8,3.3,2.6,6.1,1.7c2.8-0.9,4.5-3.2,3.9-5
					C1126.5,656.7,1123.7,656,1120.9,656.9"/>
				<path id="Path_65" d="M1111.8,666.9c0.8-2,3.6-2.7,3.1-6c-0.2-1.3-0.8-2.5-1.7-3.3c-2.4-2.3-4.5-0.5-6.6-1
					c-2.4-0.5-5.1-2.3-8-0.3c-0.9,0.6-1.5,1.5-1.7,2.5c-0.2,1.5,0.4,3.1,1.5,4.1c2.1,1.7,3.4,4.2,3.6,6.9c0.2,1.5,1.1,2.9,2.4,3.6
					c1,0.4,2.1,0.5,3.1,0.1C1110.6,672.4,1110.8,669.2,1111.8,666.9"/>
				<path id="Path_66" d="M1235.4,597.7c-1.6,2.2-4.1,3.1-5.7,2c-1.6-1.1-1.6-3.8,0-6s4.1-3.1,5.7-2
					C1236.9,592.8,1236.9,595.5,1235.4,597.7"/>
				<path id="Path_67" d="M1244.9,598.2c-2,2.1-4.8,2.7-6.2,1.4c-1.4-1.3-0.9-4.1,1.1-6.3c2-2.1,4.8-2.7,6.2-1.4
					C1247.4,593.2,1246.9,596,1244.9,598.2"/>
				<path id="Path_68" d="M1244.1,609.2c-2.5,0.9-4.1,3.1-3.4,4.9s3.2,2.5,5.8,1.6c2.5-0.9,4.1-3.1,3.4-4.9
					S1246.7,608.2,1244.1,609.2"/>
				<path id="Path_69" d="M1246.2,599.9c-2.6,1.4-3.9,3.9-3,5.6s3.8,2,6.3,0.6c2.6-1.4,3.9-3.9,3-5.6S1248.8,598.5,1246.2,599.9"/>
				<path id="Path_70" d="M1238.9,611.3c0.5-2.1,3-3.2,2-6.4c-0.4-1.2-1.2-2.3-2.3-3c-2.8-1.9-4.5,0.3-6.7,0.2
					c-2.5-0.1-5.5-1.3-7.9,1.1c-0.8,0.7-1.2,1.7-1.3,2.8c0.1,1.5,0.9,3,2.2,3.8c2.4,1.3,4.1,3.5,4.7,6.2c0.4,1.5,1.6,2.7,3.1,3.2
					c1,0.3,2.1,0.1,3-0.5C1238.8,617,1238.4,613.8,1238.9,611.3"/>
			</g>
		</g>
	</g>
</g>
</svg>
