<?xml version="1.0" encoding="UTF-8"?>
<svg id="Layer_1" data-name="Layer 1" xmlns="http://www.w3.org/2000/svg" version="1.1" xmlns:xlink="http://www.w3.org/1999/xlink" viewBox="0 0 717.3 518.5">
  <defs>
    <style>
      .cls-1 {
        fill: #000;
      }

      .cls-1, .cls-2 {
        stroke-width: 0px;
      }

      .cls-2 {
        fill: none;
      }

      .cls-3 {
        opacity: .4;
      }

      .cls-4 {
        clip-path: url(#clippath);
      }
    </style>
    <clipPath id="clippath">
      <polygon class="cls-2" points="-37.2 428.2 628.1 -88.1 752.4 66 85.1 574.9 -37.2 428.2"/>
    </clipPath>
  </defs>
  <g id="Group_5" data-name="Group 5" class="cls-3">
    <g id="Group_4" data-name="Group 4">
      <g class="cls-4">
        <g>
          <path id="Path_1" data-name="Path 1" class="cls-1" d="M30,479.4c-1,2.5-3.2,4-5,3.3s-2.5-3.3-1.5-5.9,3.2-4,5-3.3,2.5,3.3,1.5,5.9"/>
          <path id="Path_2" data-name="Path 2" class="cls-1" d="M39.4,477.6c-1.5,2.5-4,3.8-5.7,2.8s-1.9-3.8-.4-6.4c1.5-2.6,4-3.8,5.7-2.8s1.8,3.8.4,6.4"/>
          <path id="Path_3" data-name="Path 3" class="cls-1" d="M41.3,488.4c-2.2,1.5-3.2,4-2.1,5.6s3.7,1.7,6.1,0c2.2-1.5,3.2-4,2.1-5.6s-3.8-1.6-6.1,0"/>
          <path id="Path_4" data-name="Path 4" class="cls-1" d="M41.1,478.9c-2.1,2-2.9,4.8-1.5,6.1,1.3,1.4,4.1,1,6.3-.9,2.1-2,2.9-4.8,1.5-6.1-1.3-1.4-4.1-1-6.3.9"/>
          <path id="Path_5" data-name="Path 5" class="cls-1" d="M36.7,491.8c0-2.1,2.2-3.8.3-6.7-.7-1.1-1.7-1.9-2.9-2.3-3.1-1.2-4.3,1.4-6.5,1.8-2.5.5-5.7,0-7.4,3-.6.9-.8,2-.6,3,.4,1.4,1.7,2.7,3.1,3.1,1.2.4,2.5,1,3.6,1.7,1,.9,1.8,2,2.5,3.1.8,1.3,2.1,2.2,3.7,2.3,1.1,0,2.1-.4,2.9-1.2,2.6-2.4,1.4-5.5,1.4-7.9"/>
          <path id="Path_6" data-name="Path 6" class="cls-1" d="M98.4,384.6c-1.4,2.3-3.8,3.6-5.4,2.6s-2-3.6-.7-6,3.8-3.6,5.4-2.6,2,3.6.7,6"/>
          <path id="Path_7" data-name="Path 7" class="cls-1" d="M107.9,384c-1.8,2.3-4.4,3.2-6,2.1-1.5-1.2-1.3-4,.4-6.4,1.8-2.3,4.4-3.2,6-2.1,1.5,1.2,1.3,4-.4,6.4"/>
          <path id="Path_8" data-name="Path 8" class="cls-1" d="M108.4,395c-2.4,1.2-3.7,3.6-2.9,5.3s3.5,2.2,5.9.9c2.4-1.2,3.7-3.6,2.9-5.3-.9-1.7-3.5-2.1-5.9-.9"/>
          <path id="Path_9" data-name="Path 9" class="cls-1" d="M109.4,385.6c-2.4,1.7-3.5,4.3-2.3,5.9s3.9,1.6,6.4,0c2.4-1.7,3.5-4.3,2.3-5.9-1.1-1.6-3.9-1.6-6.4,0"/>
          <path id="Path_10" data-name="Path 10" class="cls-1" d="M103.4,397.7c.3-2.1,2.7-3.6,1.2-6.6-.6-1.2-1.5-2.1-2.6-2.8-2.9-1.5-4.5.8-6.6.9-2.5.2-5.6-.7-7.8,2-.7.8-1,1.9-.9,2.9.3,1.5,1.2,2.9,2.6,3.5,2.5,1,4.5,3.1,5.4,5.6.6,1.5,1.9,2.5,3.3,2.8,1,0,2.1-.2,3-.8,2.8-2,2-5.2,2.3-7.6"/>
          <path id="Path_11" data-name="Path 11" class="cls-1" d="M187.5,304c-1.8,2-4.5,2.6-5.8,1.3-1.4-1.3-1.1-4,.7-6s4.5-2.6,5.8-1.3,1.1,4-.7,6"/>
          <path id="Path_12" data-name="Path 12" class="cls-1" d="M196.8,305.6c-2.3,1.8-5.1,2.1-6.3.6s-.3-4.3,1.8-6.1c2.3-1.8,5.1-2.1,6.3-.6s.4,4.2-1.8,6.1"/>
          <path id="Path_13" data-name="Path 13" class="cls-1" d="M194.7,316.4c-2.7.6-4.5,2.6-4.1,4.5s2.9,2.9,5.6,2.3c2.7-.6,4.5-2.6,4.1-4.5-.5-1.8-3-2.8-5.6-2.3"/>
          <path id="Path_14" data-name="Path 14" class="cls-1" d="M197.9,307.5c-2.7,1-4.4,3.4-3.7,5.2s3.5,2.4,6.2,1.4,4.4-3.4,3.7-5.2-3.4-2.4-6.2-1.4"/>
          <path id="Path_15" data-name="Path 15" class="cls-1" d="M189.2,318c.7-2,3.4-2.8,2.8-6.1-.3-1.3-.9-2.4-1.9-3.2-2.5-2.1-4.6-.3-6.7-.7-2.5-.4-5.3-2-8,0-.8.6-1.5,1.5-1.6,2.6s.5,3,1.8,4c2.2,1.6,3.7,4,3.9,6.8.3,1.5,1.2,2.9,2.6,3.5,1,.4,2.1.4,3.1,0,3.2-1.3,3.1-4.6,4-6.9"/>
          <path id="Path_16" data-name="Path 16" class="cls-1" d="M302,256.8c-2.3,1.4-5,1.3-6-.4s0-4.1,2.4-5.5,5-1.3,6,.4,0,4.1-2.4,5.5"/>
          <path id="Path_17" data-name="Path 17" class="cls-1" d="M310.5,261c-2.7,1.1-5.4.6-6.2-1.1-.8-1.7.9-4.2,3.5-5.3s5.4-.6,6.2,1.1c.7,1.8-.9,4.2-3.5,5.3"/>
          <path id="Path_18" data-name="Path 18" class="cls-1" d="M305.5,270.8c-2.7,0-5,1.3-5.1,3.1s1.9,3.6,4.7,3.8c2.7,0,5-1.3,5.1-3.1s-2-3.5-4.7-3.8"/>
          <path id="Path_19" data-name="Path 19" class="cls-1" d="M311,263.2c-2.9.3-5.1,2-5,4s2.6,3.3,5.5,3,5.1-2,5-4-2.6-3.3-5.5-3"/>
          <path id="Path_20" data-name="Path 20" class="cls-1" d="M299.8,270.7c1.3-1.8,4-1.8,4.4-5.1,0-1.3-.2-2.6-.9-3.6-1.8-2.8-4.3-1.5-6.2-2.4-2.2-1.1-4.5-3.4-7.7-2.2s-1.8,1.1-2.3,2.1c-.5,1.5-.3,3.1.6,4.4,1.7,2.1,2.4,4.9,1.8,7.5-.2,1.6.4,3.1,1.6,4.1.9.6,2,1,3,.8,3.4-.4,4.2-3.5,5.7-5.5"/>
          <path id="Path_21" data-name="Path 21" class="cls-1" d="M434.4,228.9c-2.4,1.2-5.1.8-5.9-.9s.4-4.1,2.8-5.3,5.1-.8,5.9.9-.4,4-2.8,5.3"/>
          <path id="Path_22" data-name="Path 22" class="cls-1" d="M442.5,233.8c-2.8.9-5.5,0-6.1-1.7s1.1-4.1,4-5c2.8-.9,5.5,0,6.1,1.7s-1.2,4-4,5"/>
          <path id="Path_23" data-name="Path 23" class="cls-1" d="M436.7,243.1c-2.7-.4-5.1.8-5.4,2.7s1.7,3.8,4.4,4.1c2.7.4,5.1-.8,5.4-2.7.3-1.8-1.7-3.7-4.4-4.1"/>
          <path id="Path_24" data-name="Path 24" class="cls-1" d="M442.8,236c-2.9,0-5.3,1.6-5.3,3.5s2.4,3.5,5.3,3.5,5.3-1.6,5.3-3.5-2.3-3.5-5.3-3.5"/>
          <path id="Path_25" data-name="Path 25" class="cls-1" d="M431,242.6c1.4-1.6,4.2-1.4,4.7-4.7.3-1.3,0-2.6-.6-3.7-1.6-2.9-4.1-1.8-6-3-2.1-1.3-4.1-3.8-7.5-2.8-1.1.3-1.9.9-2.4,1.9-.6,1.4-.6,3,.2,4.4,1.5,2.2,1.9,5,1.2,7.7-.3,1.5,0,3.1,1.2,4.3.8.8,1.8,1.1,2.9,1,3.4-.2,4.5-3.2,6.2-5.1"/>
          <path id="Path_26" data-name="Path 26" class="cls-1" d="M560.8,178.8c-2,1.7-4.7,2.1-6,.7-1.3-1.4-.7-4,1.4-5.9,2-1.7,4.7-2.1,6-.7s.7,4.1-1.4,5.9"/>
          <path id="Path_27" data-name="Path 27" class="cls-1" d="M570,181.4c-2.5,1.6-5.3,1.6-6.3,0s0-4.2,2.5-5.8c2.5-1.6,5.3-1.6,6.3,0,1.1,1.6,0,4.2-2.5,5.8"/>
          <path id="Path_28" data-name="Path 28" class="cls-1" d="M566.7,191.9c-2.7.3-4.7,2.1-4.5,4s2.6,3.2,5.3,2.9c2.7-.3,4.7-2.1,4.5-4-.2-2-2.6-3.2-5.3-2.9"/>
          <path id="Path_29" data-name="Path 29" class="cls-1" d="M570.9,183.4c-2.8.8-4.7,2.9-4.2,4.8.5,1.8,3.2,2.7,6,2s4.7-2.9,4.2-4.8c-.5-1.8-3.2-2.7-6-2"/>
          <path id="Path_30" data-name="Path 30" class="cls-1" d="M561.2,192.8c1-2,3.7-2.5,3.3-5.8,0-1.2-.7-2.5-1.5-3.5-2.2-2.5-4.5-.7-6.5-1.4-2.4-.7-5.1-2.6-8-.8-1,.5-1.6,1.4-1.9,2.4-.3,1.5.2,3.1,1.3,4.2,2.1,1.8,3.2,4.4,3.2,7.1s.9,3,2.2,3.8c.9.5,2.1.6,3.1.2,3.4-.9,3.7-4.1,4.8-6.4"/>
          <path id="Path_31" data-name="Path 31" class="cls-1" d="M669.9,93c-1.6,2.1-4.3,2.8-5.8,1.7s-1.3-3.9.4-6,4.3-2.8,5.8-1.7c1.5,1.2,1.3,3.9-.4,6"/>
          <path id="Path_32" data-name="Path 32" class="cls-1" d="M679.3,94c-2.1,2-5,2.4-6.3,1s-.6-4.2,1.5-6.1c2.1-2,5-2.4,6.3-1,1.4,1.4.7,4.2-1.5,6.1"/>
          <path id="Path_33" data-name="Path 33" class="cls-1" d="M677.9,104.9c-2.6.8-4.3,2.8-3.8,4.7s3.1,2.7,5.7,2c2.6-.8,4.3-2.8,3.8-4.7s-3.1-2.7-5.7-2"/>
          <path id="Path_34" data-name="Path 34" class="cls-1" d="M680.6,95.8c-2.6,1.2-4.2,3.6-3.3,5.4.8,1.7,3.6,2.2,6.3,1s4.2-3.6,3.3-5.4c-.8-1.8-3.6-2.2-6.3-1"/>
          <path id="Path_35" data-name="Path 35" class="cls-1" d="M672.5,106.7c.6-2.1,3.2-3.1,2.4-6.3-.4-1.2-1.1-2.4-2.1-3.2-2.6-2.1-4.6,0-6.7-.2-2.4-.2-5.4-1.7-8,.6-.8.6-1.4,1.7-1.4,2.7,0,1.5.7,3,2,3.9,2.3,1.5,3.9,3.8,4.3,6.5.4,1.5,1.4,2.8,2.9,3.3,1,.4,2.1.3,3.1-.3,3-1.4,2.8-4.6,3.5-7"/>
          <path id="Path_36" data-name="Path 36" class="cls-1" d="M34.7,411.5c-.7,2.6-2.7,4.4-4.6,3.9s-2.9-3-2.2-5.6,2.7-4.4,4.6-3.9c1.8.5,2.8,3,2.2,5.6"/>
          <path id="Path_37" data-name="Path 37" class="cls-1" d="M43.7,408.5c-1.1,2.7-3.5,4.2-5.3,3.5s-2.3-3.5-1.2-6.2,3.5-4.2,5.3-3.5,2.3,3.5,1.2,6.2"/>
          <path id="Path_38" data-name="Path 38" class="cls-1" d="M46.9,419.1c-2,1.7-2.7,4.4-1.4,5.8s3.9,1.2,6-.6c2-1.7,2.7-4.4,1.4-5.8-1.2-1.5-3.9-1.2-6,.6"/>
          <path id="Path_39" data-name="Path 39" class="cls-1" d="M45.6,409.7c-1.9,2.2-2.2,5-.8,6.3s4.3.5,6.1-1.7c1.9-2.2,2.2-5,.8-6.3s-4.2-.5-6.1,1.7"/>
          <path id="Path_40" data-name="Path 40" class="cls-1" d="M42.8,422.9c-.3-2.1,1.7-4.1-.4-6.7-.8-1-1.9-1.7-3.2-2-3.3-.8-4.1,1.9-6.2,2.6-2.4.8-5.6.8-7,3.9-.5.9-.5,2-.2,3.1.6,1.4,1.9,2.5,3.4,2.8,2.7.4,5.1,1.8,6.6,4.1.9,1.3,2.5,1.9,4,1.9s2-.7,2.6-1.5c2.3-2.7.8-5.5.3-8.1"/>
          <path id="Path_41" data-name="Path 41" class="cls-1" d="M118.5,324.1c-1.2,2.5-3.5,3.8-5.2,3s-2.2-3.4-1.1-5.9c1.2-2.5,3.5-3.8,5.2-3s2.2,3.4,1.1,5.9"/>
          <path id="Path_42" data-name="Path 42" class="cls-1" d="M127.9,322.9c-1.6,2.4-4.2,3.5-5.8,2.4s-1.6-3.9,0-6.3c1.6-2.4,4.2-3.5,5.8-2.4,1.6,1,1.6,3.9,0,6.3"/>
          <path id="Path_43" data-name="Path 43" class="cls-1" d="M129.1,333.8c-2.4,1.3-3.5,3.8-2.5,5.5s3.6,1.9,6,.6c2.4-1.3,3.5-3.8,2.5-5.5s-3.7-1.9-6-.6"/>
          <path id="Path_44" data-name="Path 44" class="cls-1" d="M129.6,324.3c-2.3,1.8-3.2,4.5-2,6s4,1.3,6.3-.5,3.2-4.5,2-6-4-1.2-6.3.5"/>
          <path id="Path_45" data-name="Path 45" class="cls-1" d="M124.3,336.9c0-2.2,2.4-3.7.9-6.7-.7-1.1-1.6-2-2.8-2.6-3.1-1.4-4.4,1.1-6.6,1.3-2.5.3-5.6-.4-7.6,2.5-.6.9-1,2-.8,3,.4,1.5,1.4,2.8,2.9,3.3,2.6.8,4.7,2.8,5.7,5.3.6,1.4,2,2.3,3.6,2.6,1.1,0,2.1-.3,2.9-1,2.7-2.2,1.7-5.3,1.8-7.8"/>
          <path id="Path_46" data-name="Path 46" class="cls-1" d="M231.7,244.5c-1.8,2-4.5,2.5-5.9,1.2s-1-4,.8-5.9c1.8-2,4.5-2.5,5.9-1.2s1,3.9-.8,5.9"/>
          <path id="Path_47" data-name="Path 47" class="cls-1" d="M241,246.3c-2.3,1.8-5.1,2-6.3.5-1.2-1.6-.3-4.3,2-6s5.1-2,6.3-.5c1.2,1.6.3,4.3-2,6"/>
          <path id="Path_48" data-name="Path 48" class="cls-1" d="M238.7,257.1c-2.7.5-4.5,2.5-4.1,4.4s2.9,3,5.5,2.4c2.7-.5,4.5-2.5,4.1-4.4s-2.9-2.9-5.5-2.4"/>
          <path id="Path_49" data-name="Path 49" class="cls-1" d="M242,248.2c-2.7,1-4.4,3.3-3.7,5.1s3.4,2.5,6.1,1.5,4.4-3.3,3.7-5.1c-.6-1.8-3.4-2.4-6.1-1.5"/>
          <path id="Path_50" data-name="Path 50" class="cls-1" d="M233.1,258.5c.7-2,3.5-2.7,2.9-6.1-.3-1.3-.8-2.5-1.8-3.3-2.5-2.3-4.5-.4-6.6-.8-2.4-.5-5.2-2.2-8,0-.9.5-1.5,1.5-1.7,2.6-.2,1.6.5,3,1.7,4.1,2.2,1.6,3.6,4.1,3.8,6.8.3,1.5,1.2,2.9,2.6,3.6,1,.4,2.1.4,3.1,0,3.2-1.4,3.3-4.6,4.1-6.9"/>
          <path id="Path_51" data-name="Path 51" class="cls-1" d="M365.3,208.2c-2.2,1.5-4.9,1.5-6,0-1.1-1.6-.2-4.1,2.1-5.6,2.2-1.5,4.9-1.5,6,0s.2,4.1-2.1,5.6"/>
          <path id="Path_52" data-name="Path 52" class="cls-1" d="M374,211.9c-2.6,1.2-5.4.9-6.3-.9s.6-4.2,3.3-5.4,5.4-.9,6.3.9c.9,1.7-.5,4.2-3.3,5.4"/>
          <path id="Path_53" data-name="Path 53" class="cls-1" d="M369.5,222c-2.7,0-4.9,1.5-4.9,3.4s2.2,3.4,4.9,3.5,4.9-1.5,4.9-3.4-2.2-3.4-4.9-3.5"/>
          <path id="Path_54" data-name="Path 54" class="cls-1" d="M374.7,214c-2.9.3-5,2.3-4.7,4.2s2.8,3.2,5.8,2.7,5-2.3,4.7-4.2-2.9-3.1-5.8-2.7"/>
          <path id="Path_55" data-name="Path 55" class="cls-1" d="M363.9,222.2c1.1-1.8,4-2,4.1-5.3,0-1.3-.3-2.5-1.1-3.7-1.9-2.7-4.4-1.3-6.4-2.2-2.3-.9-4.6-3.1-7.8-1.7-1,.4-1.8,1.2-2.1,2.2-.5,1.5-.2,3.1.8,4.3,1.8,2,2.6,4.8,2.2,7.5-.2,1.6.5,3,1.8,4,.9.6,1.9.9,3,.6,3.4-.6,4.1-3.7,5.6-5.8"/>
          <path id="Path_56" data-name="Path 56" class="cls-1" d="M487.5,176.5c-2,1.8-4.6,2.2-6,.8-1.3-1.4-.8-4,1.2-5.9,2-1.8,4.6-2.2,6-.8,1.4,1.4.8,4.1-1.2,5.9"/>
          <path id="Path_57" data-name="Path 57" class="cls-1" d="M496.7,178.9c-2.4,1.7-5.2,1.7-6.4,0s0-4.3,2.3-5.9,5.2-1.7,6.4,0,0,4.2-2.3,5.9"/>
          <path id="Path_58" data-name="Path 58" class="cls-1" d="M493.8,189.5c-2.6.4-4.6,2.2-4.4,4.2.3,1.9,2.7,3.1,5.3,2.8s4.6-2.2,4.4-4.2c-.3-1.9-2.7-3.1-5.3-2.8"/>
          <path id="Path_59" data-name="Path 59" class="cls-1" d="M497.7,180.8c-2.8.9-4.6,3.1-4,4.9s3.3,2.7,6.1,1.8,4.6-3.1,4-4.9c-.5-1.8-3.3-2.7-6.1-1.8"/>
          <path id="Path_60" data-name="Path 60" class="cls-1" d="M488.2,190.6c.9-1.9,3.6-2.6,3.2-5.8,0-1.2-.7-2.5-1.6-3.3-2.3-2.4-4.5-.6-6.5-1.1-2.4-.6-5.1-2.4-8-.6-1,.6-1.6,1.5-1.8,2.5-.2,1.6.3,3.1,1.4,4.2,2.1,1.8,3.4,4.3,3.3,7,.2,1.5,1,2.9,2.4,3.7.9.5,2,.5,3,0,3.3-1.2,3.6-4.4,4.6-6.6"/>
          <path id="Path_61" data-name="Path 61" class="cls-1" d="M594,115.8c-1.1,2.5-3.4,3.9-5.1,3s-2.3-3.4-1.2-5.9,3.4-3.9,5.1-3,2.3,3.4,1.2,5.9"/>
          <path id="Path_62" data-name="Path 62" class="cls-1" d="M603.3,114.6c-1.6,2.4-4.2,3.5-5.8,2.5s-1.7-3.8,0-6.4c1.6-2.4,4.2-3.5,5.8-2.5,1.7,1.1,1.7,3.8,0,6.4"/>
          <path id="Path_63" data-name="Path 63" class="cls-1" d="M604.8,125.5c-2.3,1.4-3.4,3.9-2.5,5.5s3.6,1.9,6,.5,3.4-3.9,2.5-5.5c-1-1.7-3.6-1.9-6-.5"/>
          <path id="Path_64" data-name="Path 64" class="cls-1" d="M605,116c-2.3,1.8-3.1,4.6-1.8,6.1s4,1.2,6.3-.6c2.3-1.8,3.1-4.6,1.8-6.1-1.1-1.6-4-1.2-6.3.6"/>
          <path id="Path_65" data-name="Path 65" class="cls-1" d="M600.1,128.6c0-2.2,2.4-3.8.7-6.7-.7-1.1-1.6-2-2.8-2.5-3.1-1.3-4.4,1.1-6.5,1.4-2.4.4-5.6-.3-7.6,2.6-.6.9-.9,1.9-.7,2.9.4,1.5,1.5,2.8,2.9,3.3,2.6.8,4.7,2.7,5.8,5.2.7,1.3,2.1,2.3,3.5,2.5,1.1,0,2.1-.3,2.9-1,2.5-2.1,1.5-5.2,1.6-7.7"/>
          <path id="Path_66" data-name="Path 66" class="cls-1" d="M690.6,19.7c-.7,2.6-2.7,4.4-4.6,3.9s-2.9-3-2.2-5.6,2.7-4.4,4.6-3.9c1.8.5,2.8,3,2.2,5.6"/>
          <path id="Path_67" data-name="Path 67" class="cls-1" d="M699.7,16.7c-1.1,2.7-3.5,4.2-5.3,3.5s-2.3-3.5-1.2-6.3c1.1-2.7,3.5-4.2,5.3-3.5s2.3,3.5,1.2,6.3"/>
          <path id="Path_68" data-name="Path 68" class="cls-1" d="M702.9,27.3c-2,1.7-2.7,4.4-1.4,5.8s3.9,1.2,6-.6c2-1.7,2.7-4.4,1.4-5.8s-3.9-1.3-6,.6"/>
          <path id="Path_69" data-name="Path 69" class="cls-1" d="M701.5,17.9c-1.9,2.2-2.2,5-.8,6.3s4.3.5,6.1-1.7c1.9-2.2,2.2-5,.8-6.3s-4.2-.5-6.1,1.7"/>
          <path id="Path_70" data-name="Path 70" class="cls-1" d="M698.8,31.1c-.3-2.1,1.7-4.1-.4-6.7-.8-1-1.9-1.7-3.2-2-3.3-.8-4.1,1.9-6.2,2.6-2.4.8-5.6.8-7,3.9-.5.9-.5,2-.2,3.1.6,1.4,1.9,2.5,3.4,2.8,2.7.4,5.1,1.8,6.6,4.1.9,1.3,2.5,1.9,4,1.9s2-.7,2.6-1.5c2.3-2.7.8-5.5.3-8.1"/>
        </g>
      </g>
    </g>
  </g>
</svg>