<?xml version="1.0" encoding="utf-8"?>
<!-- Generator: Adobe Illustrator 28.3.0, SVG Export Plug-In . SVG Version: 6.00 Build 0)  -->
<svg version="1.1" id="Layer_1" xmlns="http://www.w3.org/2000/svg" xmlns:xlink="http://www.w3.org/1999/xlink" x="0px" y="0px"
	 viewBox="0 0 500 500" style="enable-background:new 0 0 500 500;" xml:space="preserve">
<style type="text/css">
	.st0{fill:#707070;}
</style>
<g>
	<path class="st0" d="M282.1,45.7c-0.4-0.9,0-2.1,0.9-2.5c0.9-0.4,2.1,0,2.5,0.9c3.7,8,7,15.6,9.8,22.9c1.1-0.5,2.3-1,3.4-1.5
		c8.4-3.5,17-5.7,25.8-6.4c16.1-1.3,25.6,1.1,34.3,3.3c13.9,3.5,25.3,6.4,59.7-9.8c0.7-0.3,1.6-0.2,2.1,0.4c3,2.6,5.5,5.5,7.5,8.7
		c6.1,9.3,8.3,20.5,7.1,31.5c-1.2,11-5.8,21.8-13.2,30.3c-3,3.4-6.4,6.4-10.3,9c-4.1,2.7-8.1,4.8-11.7,6.8
		c-15.7,8.4-25.6,13.7-15.3,54.3c0,0.1,0,0.1,0,0.2c3.4,17.5,4.1,35.3,2,53.2c-2,18-6.7,36.2-14.1,54.6
		c-5.1,12.7-10.8,23.5-16.2,33.4c-15.3,28.6-27,50.6-9.4,94.8c3-0.2,6.1,0.1,9,1c3.3,1.1,6.4,2.9,9,5.3c2.6,2.5,4.6,5.5,5.8,8.7
		c1.2,3.3,1.8,6.8,1.4,10.4c-0.1,1-0.9,1.7-1.9,1.7v0H319c-1,0-1.9-0.8-1.9-1.9c0-1,0.8-1.9,1.9-1.9h49.6c0-2.4-0.4-4.8-1.3-7
		c-1-2.7-2.7-5.2-4.9-7.3c-2.2-2.1-4.8-3.6-7.6-4.5c-2.8-0.9-5.7-1.1-8.7-0.7c-0.9,0.2-1.7-0.3-2.1-1.2c-19-46.7-6.8-69.5,9.1-99.3
		c5.3-9.9,10.9-20.5,16-33.1c7.3-18.1,11.9-36,13.9-53.6c2-17.6,1.3-35-2-52.1c-11.1-43.4-0.2-49.2,17.2-58.5
		c3.6-1.9,7.5-4,11.4-6.6c3.6-2.3,6.7-5.2,9.5-8.3c7-7.9,11.2-18,12.3-28.2c1.1-10.2-0.9-20.5-6.5-29c-1.7-2.6-3.7-4.9-6-7.1
		c-34.7,16.2-46.6,13.2-61.1,9.5c-8.3-2.1-17.6-4.5-33-3.2c-8.4,0.7-16.6,2.7-24.7,6.1c-1.2,0.5-2.4,1-3.5,1.6
		c2.3,6.1,4.3,12,5.9,17.6c3.9,13.2,6,25,6.3,35.2c0.6,21.8-5.2,34.1-13.4,39.5c-3.9,2.6-8.4,3.6-13,3.3c-4.5-0.3-9-1.9-13.3-4.4
		c-11.3-6.8-20.6-20.8-20-36.6c0.3-6.9,2.5-14.1,6.6-21.6c4.1-7.4,10.1-15.1,17.9-23c0.1-0.1,0.2-0.2,0.3-0.2
		c5.9-4.6,11.8-8.4,17.8-11.5C289,61.4,285.8,53.8,282.1,45.7L282.1,45.7z M279.5,453c0-0.6,0.1-1.2,0.1-1.7
		c0-5.8-1.9-10.4-5.8-13.7c-4-3.5-10.2-5.7-18.5-6.7c-3.2-0.4-6.6-0.6-10.3-0.6c-1,0-1.9-0.9-1.9-1.9c0-0.8,0.5-1.5,1.2-1.7l0,0
		c10-4.2,18.6-8.4,25.7-12.8c7-4.4,12.6-8.8,16.6-13.4c6.4-7.3,8.6-15.4,7.6-23.3c-0.9-6.9-4.1-13.8-9-19.7
		c-4.9-6.1-11.4-11.2-18.8-14.8c-11.8-5.8-25.8-7.5-38.5-2.1c-20.1,8.6-35.4,29.6-51.1,51.2c-9.3,12.8-18.7,25.8-29.5,36.7
		c1.2,2,2.4,4,3.8,5.8c7.2,9.4,17.8,16,32,18.2c2.2,0.3,4.4,0.6,6.7,0.7l0,0H279.5L279.5,453z M199.2,456.8c-3.2,0.2-6.2,0.2-9.2,0
		H190c-0.1,0-0.2,0-0.3,0c-2.5-0.1-4.8-0.4-7.1-0.8c-15.2-2.4-26.6-9.5-34.4-19.6c-1.3-1.7-2.5-3.5-3.6-5.4
		c-3.3,3.1-6.7,6.1-10.3,8.8c-13.6,10.2-26,13.1-36.6,10.8c-7.7-1.6-14.3-5.9-19.5-12.1c-5.2-6.1-9.1-14-11.4-22.9
		c-5.2-20.1-2.3-45.5,11.9-66.8c0.6-0.9,1.8-1.1,2.6-0.5c0.9,0.6,1.1,1.8,0.5,2.6c-13.6,20.3-16.3,44.5-11.4,63.7
		c2.2,8.4,5.8,15.8,10.6,21.4c4.7,5.6,10.6,9.4,17.5,10.9c9.5,2,20.9-0.7,33.6-10.1c3.7-2.8,7.2-5.9,10.7-9.2
		c-4.3-8.5-6.7-18.4-7.2-29.1c-0.4-7.1,0-14.7,1.3-22.4c7.7-48.7,44.3-78,79.6-106.4c31.6-25.4,62.2-49.9,69.3-86.6
		c0.2-1,1.2-1.7,2.2-1.5c1,0.2,1.7,1.2,1.5,2.2c-7.4,38-38.5,63-70.6,88.8c-34.8,27.9-70.8,56.8-78.3,104
		c-1.2,7.4-1.6,14.7-1.2,21.6c0.5,9.7,2.6,18.7,6.3,26.4c10.2-10.5,19.3-23,28.2-35.4c16-22.1,31.6-43.5,52.7-52.5
		c13.8-5.9,28.9-4.1,41.6,2.2c7.8,3.9,14.8,9.4,20,15.8c5.3,6.5,8.8,14,9.8,21.7c1.1,9-1.3,18.1-8.5,26.3
		c-4.3,4.9-10.1,9.6-17.4,14.1c-5.4,3.4-11.6,6.6-18.7,9.8c0.8,0.1,1.6,0.2,2.4,0.3c9,1.1,15.9,3.6,20.5,7.6
		c4.8,4.1,7.1,9.6,7.1,16.6c0,1.2-0.1,2.5-0.2,3.8c-0.1,1-0.9,1.8-1.9,1.8H199.2L199.2,456.8z M298.9,89.2c-1.6-5.4-3.5-11-5.7-16.9
		c-5.7,3-11.3,6.6-16.8,10.9c-7.6,7.7-13.3,15.1-17.3,22.1c-3.9,7-5.9,13.6-6.2,19.9c-0.6,14.3,7.9,27,18.2,33.3
		c3.7,2.3,7.7,3.6,11.6,3.9c3.8,0.3,7.4-0.6,10.6-2.7c7.2-4.7,12.2-16,11.7-36.3C304.7,113.5,302.7,102.1,298.9,89.2L298.9,89.2z
		 M274,80.2c0.7-0.5,1.8-0.5,2.4,0.2L274,80.2L274,80.2z"/>
</g>
</svg>
